<mxfile host="app.diagrams.net" modified="2024-06-12T07:36:44.179Z" agent="Mozilla/5.0 (X11; Linux x86_64; rv:126.0) Gecko/20100101 Firefox/126.0" version="24.5.3" etag="i3x11M39Qe2j15bnqgeO" type="github">
  <diagram name="Page-1" id="SIz1MsIJB_xAYhoeLVAp">
    <mxGraphModel>
      <root>
        <mxCell id="0" />
        <mxCell id="1" parent="0" />
      </root>
    </mxGraphModel>
  </diagram>
</mxfile>
